<svg version="1.1" id="Layer_1" xmlns="http://www.w3.org/2000/svg" xmlns:xlink="http://www.w3.org/1999/xlink" x="0px" y="0px"
	 width="100%" viewBox="0 0 256 128" enable-background="new 0 0 256 128" xml:space="preserve">
<path fill="#282436" opacity="1.000000" stroke="none" 
	d="
M167.000000,129.000000 
	C112.666672,129.000000 58.833233,128.958618 5.000260,129.097290 
	C1.575144,129.106110 0.888468,128.425705 0.901557,124.999634 
	C1.055017,84.833557 1.041220,44.666550 0.916164,4.500278 
	C0.906875,1.516899 1.517802,0.914383 4.500083,0.918053 
	C87.499954,1.020212 170.500000,1.020208 253.499863,0.918065 
	C256.482025,0.914394 257.093079,1.516721 257.083832,4.500226 
	C256.958954,44.833172 256.958954,85.166763 257.083832,125.499702 
	C257.093048,128.483017 256.484314,129.099930 253.499619,129.085144 
	C224.833649,128.942932 196.166687,129.000000 167.000000,129.000000 
z"/>
<path fill="#EEEE9E" opacity="1.000000" stroke="none" 
	d="
M240.601883,119.784492 
	C240.920639,120.939087 241.026642,121.876259 239.849121,121.934738 
	C238.353882,122.009003 236.853561,121.995102 235.355438,121.995155 
	C164.404739,121.997467 93.454033,122.007050 22.503391,121.940819 
	C20.710175,121.939148 18.562666,122.998581 17.068451,120.551163 
	C18.439638,118.230301 20.510067,119.132431 22.743008,118.711189 
	C34.000183,118.861549 44.834591,118.537025 55.562153,118.940865 
	C71.517990,119.541534 87.471931,117.308510 103.388031,119.397903 
	C108.043327,120.009041 112.660675,118.259018 117.316879,118.671112 
	C133.906250,120.139320 150.519135,117.818840 167.142303,119.258476 
	C175.370178,119.971039 183.735519,118.012276 192.050400,118.739044 
	C205.957123,119.954582 219.897949,118.134125 234.273178,119.332527 
	C236.592819,119.347595 238.466873,118.323380 240.601883,119.784492 
z"/>
<path fill="#EEEE9E" opacity="1.000000" stroke="none" 
	d="
M22.181763,9.552532 
	C20.632938,8.594565 18.984304,9.658559 17.573359,8.156002 
	C91.908760,8.156002 165.984344,8.156002 240.313538,8.156002 
	C239.257141,9.496820 237.912262,8.776128 236.436935,9.088333 
	C234.422623,11.870151 231.929413,11.539767 228.914795,10.997542 
	C220.797897,11.475014 213.159912,11.799026 205.531845,10.736160 
	C200.356766,10.015081 195.221695,11.596190 190.112808,11.265857 
	C173.185074,10.171335 156.228058,12.281459 139.317657,10.599772 
	C133.978638,10.068824 128.716675,11.835545 123.394051,11.336094 
	C107.146149,9.811463 90.839851,12.628246 74.599762,10.591491 
	C70.936859,10.132108 67.313698,11.115619 63.664845,11.300429 
	C52.538788,11.863953 41.438477,10.024056 29.832073,10.888088 
	C27.031097,10.657913 24.435972,12.484126 22.181763,9.552532 
z"/>
<path fill="#EEEE9E" opacity="1.000000" stroke="none" 
	d="
M191.000000,6.997169 
	C132.605759,6.997169 74.711517,6.997169 16.817272,6.997169 
	C16.817690,6.735700 16.818110,6.474231 16.818529,6.212763 
	C91.602974,6.212763 166.387421,6.212763 241.171860,6.212763 
	C241.174088,6.474231 241.176300,6.735700 241.178528,6.997169 
	C224.619019,6.997169 208.059509,6.997169 191.000000,6.997169 
z"/>
<path fill="#EEEE9E" opacity="1.000000" stroke="none" 
	d="
M230.953674,123.002823 
	C234.696045,123.002823 237.947174,123.002823 241.198318,123.002823 
	C241.193375,123.264908 241.188416,123.526985 241.183472,123.789070 
	C166.393631,123.789070 91.603798,123.789070 16.813955,123.789070 
	C16.813612,123.526985 16.813267,123.264908 16.812922,123.002823 
	C88.029427,123.002823 159.245926,123.002823 230.953674,123.002823 
z"/>
<path fill="#4B4B46" opacity="1.000000" stroke="none" 
	d="
M241.196533,119.878960 
	C239.339951,119.526764 238.094086,120.668510 236.310089,120.898926 
	C234.560242,120.266563 234.166504,119.167114 235.070541,118.092094 
	C236.443237,116.459785 236.614136,114.475143 237.332413,112.283310 
	C238.044479,111.605003 237.295044,112.010330 237.798920,111.588951 
	C238.556412,110.955460 239.496597,110.804710 240.349716,110.428482 
	C239.308990,110.515007 238.428345,110.170769 237.493393,109.148880 
	C236.854736,107.632248 237.010101,106.558479 238.406921,105.609985 
	C240.773376,106.337326 239.360611,104.398369 240.035370,103.718292 
	C242.608078,100.497261 245.411743,99.190735 249.182007,101.713028 
	C249.390305,103.876846 249.489685,105.738831 249.119690,107.819427 
	C246.861740,110.278519 243.858170,111.569450 246.067322,115.979446 
	C247.951752,119.741249 242.944962,118.210472 241.196533,119.878960 
z"/>
<path fill="#EEEE9E" opacity="1.000000" stroke="none" 
	d="
M248.910461,108.421883 
	C249.451141,106.256897 247.871429,104.429665 248.898926,102.311478 
	C247.921906,100.768112 246.851059,99.502403 247.005203,97.970184 
	C248.183197,86.261070 245.326874,74.557716 247.024323,62.851158 
	C247.645172,58.569496 248.028595,54.248417 246.532272,50.058384 
	C245.657654,47.609238 247.523514,45.568157 247.304794,42.789982 
	C247.289261,40.515739 247.614059,38.695816 247.259720,36.439346 
	C247.621765,31.833082 247.176453,27.715473 246.711182,23.168953 
	C247.211121,21.075611 246.261017,19.221758 247.808746,17.374718 
	C250.763840,16.867174 249.966797,18.877172 249.968307,20.146215 
	C250.004776,50.785553 249.996750,81.424950 249.996750,112.431618 
	C248.502487,111.250519 249.224457,109.903076 248.910461,108.421883 
z"/>
<path fill="#EEEE9E" opacity="1.000000" stroke="none" 
	d="
M9.515638,107.776405 
	C8.597022,109.364944 9.652438,111.009224 8.002831,112.578613 
	C8.002831,100.749443 8.002830,89.332497 8.002831,77.915550 
	C8.002831,59.276783 7.965618,40.637814 8.068511,21.999617 
	C8.077421,20.385643 6.938404,18.349575 9.448858,17.068455 
	C11.627424,18.333725 11.032903,20.181669 11.140932,22.303364 
	C11.387706,26.884090 10.165097,30.966419 10.673887,35.577812 
	C10.734199,37.865749 10.444896,39.699512 10.676745,42.006767 
	C11.273303,61.548626 11.066076,80.623024 10.848313,100.160004 
	C10.634892,102.934021 12.160712,105.477715 9.515638,107.776405 
z"/>
<path fill="#EEEE9E" opacity="1.000000" stroke="none" 
	d="
M252.045273,20.423573 
	C252.039001,51.605949 252.039001,82.338417 252.039001,113.070885 
	C251.801529,113.070839 251.564072,113.070793 251.326599,113.070747 
	C251.326599,81.009895 251.326599,48.949047 251.326599,16.729816 
	C252.539581,17.745390 251.824387,18.950409 252.045273,20.423573 
z"/>
<path fill="#EEEE9E" opacity="1.000000" stroke="none" 
	d="
M6.002831,55.000000 
	C6.002831,41.927216 6.002831,29.354435 6.002831,16.781651 
	C6.243068,16.783798 6.483305,16.785946 6.723541,16.788094 
	C6.723541,48.926716 6.723541,81.065338 6.723541,113.203964 
	C6.483305,113.205132 6.243068,113.206299 6.002831,113.207474 
	C6.002831,93.971649 6.002831,74.735825 6.002831,55.000000 
z"/>
<path fill="#4B4B46" opacity="1.000000" stroke="none" 
	d="
M9.400796,108.205353 
	C8.548081,106.267029 10.124959,104.435822 9.101070,102.311813 
	C12.137050,100.081062 14.901348,100.125893 17.578564,103.135544 
	C18.174994,104.110405 18.105864,104.853958 18.044811,105.628647 
	C17.993198,106.283562 18.365997,106.446091 18.103466,105.833290 
	C17.840935,105.220490 19.107141,105.733780 18.794081,105.495811 
	C20.521772,105.706848 20.954876,106.677673 20.886011,108.305244 
	C19.575289,111.125290 17.387375,110.503777 14.679893,110.151901 
	C12.100578,110.690781 10.780717,109.773148 9.400796,108.205353 
z"/>
<path fill="#4B4B46" opacity="1.000000" stroke="none" 
	d="
M229.722321,9.384056 
	C231.787262,10.651793 233.532486,8.830127 235.689178,9.094147 
	C236.820557,10.540511 238.930038,11.301951 238.093719,14.093025 
	C238.761826,20.593004 237.865082,21.571222 233.513992,19.369343 
	C234.454575,16.718010 232.202225,18.846970 231.787079,17.937662 
	C228.456497,15.655948 227.860840,12.901288 229.722321,9.384056 
z"/>
<path fill="#4B4B46" opacity="1.000000" stroke="none" 
	d="
M21.792793,9.400668 
	C23.758764,10.253299 25.543430,10.002599 27.675577,9.102584 
	C29.833416,12.148079 29.844551,14.929855 26.818882,17.590801 
	C25.882599,18.131830 25.184000,18.062477 24.459732,18.013687 
	C23.802610,17.969423 23.612368,18.308653 24.232061,18.062836 
	C24.851755,17.817020 24.238535,19.029663 24.537292,18.735085 
	C24.087013,20.952946 22.711111,21.294024 21.210321,20.579908 
	C18.950876,19.504803 19.492653,17.365108 19.837311,14.730728 
	C19.309227,12.101168 20.226732,10.781326 21.792793,9.400668 
z"/>
<path fill="#4B4B46" opacity="1.000000" stroke="none" 
	d="
M22.352783,120.686005 
	C20.638773,120.569717 19.226980,120.297195 17.444378,120.073456 
	C16.194332,119.745796 15.346284,119.173668 14.430314,119.027672 
	C10.970140,118.476166 10.762031,116.759514 12.681959,114.332779 
	C13.550025,113.235580 13.891855,112.048882 14.005026,110.348816 
	C14.023155,109.974396 14.001292,109.994865 13.988848,110.001968 
	C16.205635,109.617485 18.123915,110.524040 20.264744,111.707138 
	C20.397381,115.018440 24.266853,117.083626 22.352783,120.686005 
z"/>
<path fill="#4B4B46" opacity="1.000000" stroke="none" 
	d="
M247.878204,16.802303 
	C247.526871,18.660049 248.668427,19.905897 248.898926,21.689835 
	C248.113632,23.784723 246.756622,23.695303 245.617508,22.813536 
	C244.097870,21.637192 242.355820,21.290466 240.303925,20.687057 
	C238.130249,18.968760 238.311340,16.613398 237.860489,14.266222 
	C238.009323,13.976039 237.995255,14.000714 237.984863,14.011770 
	C238.942627,13.879316 240.199402,14.075592 240.832535,13.537742 
	C245.289597,9.751341 246.895172,12.074026 247.878204,16.802303 
z"/>
<path fill="#4B4B46" opacity="1.000000" stroke="none" 
	d="
M9.316555,22.356779 
	C9.430292,20.638771 9.702811,19.226982 9.926555,17.444389 
	C10.251740,16.350739 10.791498,15.666572 10.970734,14.898296 
	C11.715612,11.705466 13.026255,10.435430 16.065029,12.889132 
	C16.892555,13.557328 18.195053,13.637297 19.652596,14.005195 
	C20.025625,14.023161 20.005154,14.001299 19.998043,13.988859 
	C19.398695,20.227034 15.523773,23.427977 9.316555,22.356779 
z"/>
<path fill="#EEEE9E" opacity="1.000000" stroke="none" 
	d="
M234.250488,125.997177 
	C232.519577,125.997169 231.226501,125.997169 229.933426,125.997169 
	C229.932617,125.747993 229.931793,125.498825 229.930969,125.249649 
	C233.934998,125.249649 237.939026,125.249649 241.943054,125.249649 
	C241.963455,125.498825 241.983841,125.748001 242.004227,125.997177 
	C239.565598,125.997177 237.126968,125.997177 234.250488,125.997177 
z"/>
<path fill="#EEEE9E" opacity="1.000000" stroke="none" 
	d="
M4.710288,113.889832 
	C3.440381,110.186401 4.265847,106.151741 4.953692,102.090187 
	C4.953692,105.921707 4.953692,109.753235 4.710288,113.889832 
z"/>
<path fill="#EEEE9E" opacity="1.000000" stroke="none" 
	d="
M253.968765,102.903076 
	C253.991531,106.868141 253.991531,110.433060 253.991531,113.997971 
	C253.696869,114.003433 253.402222,114.008888 253.107559,114.014343 
	C253.107559,110.142738 253.104630,106.271118 253.120102,102.399582 
	C253.120636,102.269691 253.306747,102.140541 253.406342,102.011032 
	C253.586212,102.174995 253.766113,102.338966 253.968765,102.903076 
z"/>
<path fill="#EEEE9E" opacity="1.000000" stroke="none" 
	d="
M24.621639,125.997131 
	C21.402340,125.997169 18.617044,125.997169 15.831750,125.997169 
	C15.833268,125.738022 15.834786,125.478882 15.836306,125.219734 
	C19.876390,125.219734 23.916475,125.219734 28.185671,125.219734 
	C27.194534,126.492203 26.021084,125.770889 24.621639,125.997131 
z"/>
<path fill="#EEEE9E" opacity="1.000000" stroke="none" 
	d="
M16.863663,4.032467 
	C20.832109,4.008804 24.396877,4.008804 27.961645,4.008804 
	C27.968513,4.305770 27.975382,4.602737 27.982252,4.899704 
	C24.104343,4.899704 20.226421,4.902597 16.348574,4.887159 
	C16.218554,4.886642 16.089270,4.700953 15.959642,4.601578 
	C16.126423,4.419762 16.293205,4.237946 16.863663,4.032467 
z"/>
<path fill="#EEEE9E" opacity="1.000000" stroke="none" 
	d="
M234.253571,5.052879 
	C232.518494,4.970606 231.221115,4.905145 229.923752,4.839684 
	C229.927017,4.657092 229.930283,4.474501 229.933563,4.291910 
	C233.937607,4.291910 237.941650,4.291910 241.945709,4.291910 
	C241.965530,4.551170 241.985352,4.810430 242.005173,5.069690 
	C239.567215,5.069690 237.129242,5.069690 234.253571,5.052879 
z"/>
<path fill="#EEEE9E" opacity="1.000000" stroke="none" 
	d="
M4.975401,27.080065 
	C2.914286,23.662025 4.469907,19.725739 4.999998,15.829739 
	C4.999998,19.448648 4.999998,23.067560 4.975401,27.080065 
z"/>
<path fill="#EEEE9E" opacity="1.000000" stroke="none" 
	d="
M252.956909,18.515232 
	C252.999039,17.444042 253.041229,16.795887 253.083435,16.147730 
	C253.260620,16.144337 253.437790,16.140942 253.614975,16.137547 
	C253.614975,20.114672 253.614975,24.091799 253.614975,28.068924 
	C253.395645,28.077057 253.176315,28.085188 252.956985,28.093321 
	C252.956985,25.041636 252.956985,21.989950 252.956909,18.515232 
z"/>
<path fill="#282436" opacity="1.000000" stroke="none" 
	d="
M22.511684,120.911568 
	C22.761881,118.966423 21.104639,118.645935 20.101822,117.954315 
	C17.607128,116.233788 17.659725,114.451683 20.186186,111.922058 
	C21.452904,110.539207 22.622688,110.586479 24.159031,110.286697 
	C24.895502,110.130165 25.196276,110.075539 25.963654,110.005676 
	C36.467869,112.117821 46.646500,111.482376 56.785408,111.487625 
	C108.588226,111.514450 160.391083,111.478653 212.193863,111.528214 
	C218.371552,111.534126 224.510239,111.444962 231.025146,110.006363 
	C231.799927,109.992065 232.106415,109.998276 232.861938,110.061752 
	C234.439926,110.430405 235.621689,110.490585 237.361542,111.404968 
	C242.900543,116.214920 236.671402,117.576477 235.879211,120.586014 
	C190.886993,120.893654 145.834274,120.955170 100.781509,120.989548 
	C74.845291,121.009338 48.909039,120.985237 22.511684,120.911568 
z"/>
<path fill="#282436" opacity="1.000000" stroke="none" 
	d="
M26.344509,17.234444 
	C26.719360,14.464067 27.402239,12.087789 28.061432,9.435498 
	C69.600311,9.114433 111.162865,9.059767 152.725433,9.027887 
	C178.163040,9.008377 203.600693,9.023842 229.500397,9.091558 
	C230.584930,11.537233 231.207397,13.914950 231.896698,16.566504 
	C230.599426,18.875046 228.452286,18.470821 226.520004,18.471930 
	C161.507599,18.509247 96.495186,18.506523 31.482775,18.483656 
	C29.833727,18.483076 28.134857,18.630825 26.344509,17.234444 
z"/>
<path fill="#282436" opacity="1.000000" stroke="none" 
	d="
M9.088486,22.507502 
	C11.022429,22.758801 11.298363,21.083500 12.046546,20.121683 
	C12.872019,19.060509 14.534811,17.546183 15.097035,18.051783 
	C18.037184,20.695814 17.986944,16.924932 17.773216,16.564247 
	C16.099060,13.738958 19.585854,15.519274 19.798944,14.172459 
	C22.101093,14.686360 20.803036,16.409170 21.065840,17.659492 
	C21.437883,19.429541 22.020184,20.504856 23.929033,18.529625 
	C25.102791,17.011553 26.535074,17.523422 27.799030,17.523069 
	C95.933426,17.504053 164.067825,17.485786 232.202225,17.514036 
	C232.534348,17.514174 232.866455,17.563717 233.576645,17.915390 
	C235.322266,20.538189 236.259811,20.132730 236.909042,17.779280 
	C237.233795,16.602049 236.149277,15.209437 237.736877,14.082190 
	C240.899170,14.972689 240.770248,17.155205 240.146988,20.105452 
	C240.428604,21.837048 241.256210,22.773596 241.460052,24.370483 
	C241.483307,25.048923 241.487457,25.328470 241.494125,26.043224 
	C241.503860,49.956093 241.487625,73.433769 241.513824,96.911400 
	C241.516998,99.751244 241.463547,102.557312 240.085602,105.600769 
	C238.522797,106.282204 238.098648,107.192696 237.965607,109.016037 
	C237.298996,111.230919 235.576843,110.749756 234.293915,111.740532 
	C234.046356,111.962730 234.026978,111.978271 234.017395,111.986145 
	C233.127350,112.639580 232.102829,112.494667 231.116364,112.494156 
	C162.372757,112.458466 93.629097,112.585640 24.438850,112.214569 
	C23.992174,111.993965 23.972881,111.978333 23.963179,111.970589 
	C23.078487,110.785759 21.393927,111.265877 20.227192,109.628563 
	C19.928556,107.940353 19.956858,106.824020 18.539551,106.069473 
	C17.107101,105.076950 17.519068,103.819733 17.517979,102.713928 
	C17.493908,78.263229 17.495785,53.812496 17.520721,29.361801 
	C17.521540,28.559454 17.078922,27.512207 17.570139,27.226248 
	C17.361639,52.418968 17.643026,77.806786 17.128799,103.576370 
	C14.464047,103.280807 12.087780,102.597862 9.435503,101.938614 
	C9.110248,82.293213 9.061004,62.624119 9.057309,42.489647 
	C9.552551,41.562950 10.055865,41.171921 10.790911,40.707180 
	C10.958804,40.549786 11.132810,40.138252 11.128346,39.891724 
	C10.680801,37.837048 11.772273,36.223827 11.772771,34.469849 
	C11.581565,35.700703 11.142206,36.662827 9.361290,36.201317 
	C9.074971,31.638628 9.047085,27.301537 9.088486,22.507502 
z"/>
<path fill="#282436" opacity="1.000000" stroke="none" 
	d="
M239.990417,20.007652 
	C244.223587,15.093694 245.577454,21.337831 248.586029,22.120720 
	C248.891907,26.391436 248.940308,30.722691 248.942932,35.514843 
	C246.493408,35.818542 246.493454,35.818535 247.006348,38.808666 
	C247.119064,39.465733 246.908081,38.643070 247.146332,39.823868 
	C247.614716,40.811962 248.027191,41.197136 248.675964,41.796143 
	C248.923553,61.695770 248.949966,81.367104 248.908432,101.500458 
	C246.462769,102.584946 244.085037,103.207405 241.433487,103.896713 
	C239.885742,102.329041 240.539047,100.427139 240.534424,98.666183 
	C240.480728,78.191414 240.500076,57.716442 240.500061,36.825523 
	C240.307236,35.175701 240.950424,33.955574 240.533356,32.358372 
	C240.455368,29.531462 240.584885,27.062782 240.210663,24.294643 
	C239.994049,23.992123 239.978195,23.973063 239.970428,23.963409 
	C239.124069,22.958082 239.061096,21.866404 239.790863,20.335621 
	C240.021194,19.966129 240.001358,19.994047 239.990417,20.007652 
z"/>
<path fill="#EEEE9E" opacity="1.000000" stroke="none" 
	d="
M241.415771,33.769325 
	C241.119675,57.038960 241.069489,80.039368 241.089478,103.501663 
	C240.573837,104.698814 241.840057,106.184937 239.951553,106.213058 
	C239.808228,78.946434 239.856888,51.936649 239.949799,24.459494 
	C242.314682,26.430429 240.374710,29.433308 241.118301,32.524544 
	C241.333786,33.141144 241.497726,33.320618 241.415771,33.769325 
z"/>
<path fill="#282436" opacity="1.000000" stroke="none" 
	d="
M237.994461,109.002884 
	C239.612259,109.009941 241.237335,109.009941 243.004669,109.009941 
	C244.155151,113.676743 240.918564,112.393784 238.232864,112.077057 
	C237.980423,111.969910 238.001236,111.998055 238.012482,112.010956 
	C237.402679,111.339119 237.226593,110.566940 237.789368,109.336441 
	C238.012909,108.979378 238.001724,108.995819 237.994461,109.002884 
z"/>
<path fill="#4B4B46" opacity="1.000000" stroke="none" 
	d="
M248.965668,41.596207 
	C247.198395,43.127731 245.824402,42.471100 244.266907,41.103691 
	C246.532608,39.309109 245.285583,36.533249 244.872879,34.825550 
	C244.297821,32.446045 245.116196,31.195644 246.164322,29.649136 
	C249.170898,31.047457 246.354218,34.200497 248.604355,35.896725 
	C248.942825,37.706486 248.988510,39.437229 248.965668,41.596207 
z"/>
<path fill="#4B4B46" opacity="1.000000" stroke="none" 
	d="
M13.818644,40.795319 
	C12.468607,41.207100 11.576325,43.847145 9.364429,42.053825 
	C9.057178,40.293560 9.011498,38.562851 9.034338,36.403931 
	C12.395461,34.874413 8.391385,31.032894 11.712925,29.874537 
	C15.241724,31.752512 12.390959,35.091003 12.890003,37.706337 
	C13.078428,38.693817 12.633561,39.770145 13.818644,40.795319 
z"/>
<path fill="#EEEE9E" opacity="1.000000" stroke="none" 
	d="
M16.906143,104.280975 
	C16.840313,77.600403 16.840313,51.237057 16.840313,24.873709 
	C17.270449,24.872353 17.700584,24.870996 18.130720,24.869640 
	C18.130720,51.589481 18.130720,78.309319 18.185577,105.492020 
	C17.091476,106.676247 17.091476,106.676247 16.906143,104.280975 
z"/>
<path fill="#282436" opacity="1.000000" stroke="none" 
	d="
M20.009190,111.984116 
	C17.871716,112.391563 15.447334,113.803986 14.172565,110.201195 
	C15.346016,107.501930 17.559832,109.627838 19.646252,109.026321 
	C20.012838,109.009911 19.998320,108.995804 19.992712,108.987595 
	C20.519983,109.689674 20.786736,110.453880 20.220467,111.680595 
	C19.976257,112.023857 19.998783,111.998154 20.009190,111.984116 
z"/>
<path fill="#EEEE9E" opacity="1.000000" stroke="none" 
	d="
M234.211670,18.048615 
	C210.291306,18.197172 186.627930,18.124491 162.964508,18.116920 
	C116.966637,18.102207 70.968758,18.124031 24.508026,18.185575 
	C22.705589,15.901000 25.084385,17.538860 25.719219,16.906158 
	C69.264145,16.885599 112.491798,16.939367 155.719467,16.972845 
	C180.826172,16.992289 205.932907,16.979149 231.501587,16.910505 
	C232.698288,17.426289 234.184708,16.159737 234.211670,18.048615 
z"/>
<path fill="#EEEE9E" opacity="1.000000" stroke="none" 
	d="
M24.171595,112.397095 
	C70.565041,111.959099 117.137894,111.917000 163.710770,111.892410 
	C186.831528,111.880203 209.952316,111.900139 233.540466,111.949783 
	C233.288193,113.760452 231.727463,113.008789 230.555801,113.009483 
	C162.479462,113.050240 94.403107,113.048065 26.326757,113.038422 
	C25.668165,113.038330 25.009594,112.883041 24.171595,112.397095 
z"/>
<path fill="#4B4B46" opacity="1.000000" stroke="none" 
	d="
M227.947052,118.081558 
	C229.363846,115.295631 231.184998,115.373543 233.537552,117.229881 
	C231.763031,118.475151 230.403687,120.534554 227.947052,118.081558 
z"/>
<path fill="#4B4B46" opacity="1.000000" stroke="none" 
	d="
M237.707245,109.118286 
	C238.013641,109.740242 238.014374,110.501106 238.019424,111.642914 
	C236.962769,112.008377 235.901794,111.992897 234.443588,111.970078 
	C234.267227,109.947823 236.189072,110.042351 237.707245,109.118286 
z"/>
<path fill="#4B4B46" opacity="1.000000" stroke="none" 
	d="
M20.374359,112.015228 
	C19.968534,111.262527 19.960814,110.501198 19.970097,109.359619 
	C21.220852,109.831085 23.038136,109.733406 23.883404,111.647003 
	C22.893139,111.977432 21.832800,111.992020 20.374359,112.015228 
z"/>
<path fill="#4B4B46" opacity="1.000000" stroke="none" 
	d="
M203.704941,118.974365 
	C203.329086,119.290657 202.637039,119.578186 201.927246,119.811768 
	C201.873596,119.829422 201.693604,119.463181 201.572342,119.275383 
	C202.176331,119.160957 202.780334,119.046539 203.704941,118.974365 
z"/>
<path fill="#4B4B46" opacity="1.000000" stroke="none" 
	d="
M171.704941,118.974365 
	C171.329086,119.290672 170.637054,119.578209 169.927246,119.811768 
	C169.873581,119.829422 169.693604,119.463181 169.572342,119.275391 
	C170.176331,119.160965 170.780334,119.046539 171.704941,118.974365 
z"/>
<path fill="#4B4B46" opacity="1.000000" stroke="none" 
	d="
M139.704941,118.974350 
	C139.329071,119.290649 138.637039,119.578194 137.927246,119.811752 
	C137.873581,119.829407 137.693604,119.463173 137.572342,119.275375 
	C138.176331,119.160957 138.780334,119.046532 139.704941,118.974350 
z"/>
<path fill="#4B4B46" opacity="1.000000" stroke="none" 
	d="
M107.704910,118.974350 
	C107.329025,119.290657 106.636986,119.578178 105.927200,119.811745 
	C105.873558,119.829391 105.693596,119.463165 105.572350,119.275375 
	C106.176338,119.160942 106.780327,119.046516 107.704910,118.974350 
z"/>
<path fill="#4B4B46" opacity="1.000000" stroke="none" 
	d="
M75.704910,118.974365 
	C75.329033,119.290665 74.637001,119.578201 73.927208,119.811768 
	C73.873573,119.829422 73.693596,119.463165 73.572350,119.275375 
	C74.176338,119.160950 74.780334,119.046524 75.704910,118.974365 
z"/>
<path fill="#4B4B46" opacity="1.000000" stroke="none" 
	d="
M43.704906,118.974365 
	C43.329041,119.290657 42.637005,119.578194 41.927216,119.811768 
	C41.873562,119.829407 41.693588,119.463173 41.572334,119.275383 
	C42.176323,119.160957 42.780312,119.046532 43.704906,118.974365 
z"/>
<path fill="#4B4B46" opacity="1.000000" stroke="none" 
	d="
M139.972672,118.972687 
	C140.062668,118.662521 140.169479,118.368095 140.276306,118.073662 
	C140.282623,118.314323 140.288956,118.554977 140.160431,118.906128 
	C140.025558,119.016609 139.989487,118.988426 139.972672,118.972687 
z"/>
<path fill="#4B4B46" opacity="1.000000" stroke="none" 
	d="
M171.972656,118.972687 
	C172.062668,118.662521 172.169479,118.368095 172.276276,118.073662 
	C172.282623,118.314323 172.288956,118.554977 172.160431,118.906128 
	C172.025558,119.016609 171.989487,118.988426 171.972656,118.972687 
z"/>
<path fill="#4B4B46" opacity="1.000000" stroke="none" 
	d="
M203.972656,118.972687 
	C204.062668,118.662521 204.169479,118.368095 204.276291,118.073662 
	C204.282623,118.314323 204.288971,118.554977 204.160431,118.906128 
	C204.025558,119.016609 203.989487,118.988426 203.972656,118.972687 
z"/>
<path fill="#4B4B46" opacity="1.000000" stroke="none" 
	d="
M38.141670,118.471832 
	C38.181587,118.551262 37.841457,118.573921 37.841457,118.573921 
	C37.841457,118.573921 38.101753,118.392410 38.141670,118.471832 
z"/>
<path fill="#4B4B46" opacity="1.000000" stroke="none" 
	d="
M69.878883,118.437439 
	C69.938614,118.371605 70.145569,118.608849 70.145569,118.608849 
	C70.145569,118.608849 69.819153,118.503281 69.878883,118.437439 
z"/>
<path fill="#4B4B46" opacity="1.000000" stroke="none" 
	d="
M101.996361,118.374855 
	C102.084801,118.376953 101.991600,118.661011 101.991600,118.661011 
	C101.991600,118.661011 101.907921,118.372757 101.996361,118.374855 
z"/>
<path fill="#4B4B46" opacity="1.000000" stroke="none" 
	d="
M133.869202,118.569473 
	C133.828308,118.490471 134.169327,118.466934 134.169327,118.466934 
	C134.169327,118.466934 133.910080,118.648483 133.869202,118.569473 
z"/>
<path fill="#4B4B46" opacity="1.000000" stroke="none" 
	d="
M166.141663,118.471832 
	C166.181580,118.551262 165.841461,118.573921 165.841461,118.573921 
	C165.841461,118.573921 166.101761,118.392395 166.141663,118.471832 
z"/>
<path fill="#4B4B46" opacity="1.000000" stroke="none" 
	d="
M197.878876,118.437431 
	C197.938614,118.371605 198.145569,118.608849 198.145569,118.608849 
	C198.145569,118.608849 197.819153,118.503258 197.878876,118.437431 
z"/>
<path fill="#4B4B46" opacity="1.000000" stroke="none" 
	d="
M107.972641,118.972687 
	C108.062660,118.662506 108.169487,118.368073 108.276321,118.073647 
	C108.282639,118.314323 108.288956,118.554993 108.160385,118.906143 
	C108.025497,119.016617 107.989441,118.988434 107.972641,118.972687 
z"/>
<path fill="#4B4B46" opacity="1.000000" stroke="none" 
	d="
M75.972641,118.972687 
	C76.062660,118.662506 76.169487,118.368073 76.276321,118.073647 
	C76.282639,118.314323 76.288956,118.554993 76.160385,118.906143 
	C76.025497,119.016617 75.989441,118.988434 75.972641,118.972687 
z"/>
<path fill="#4B4B46" opacity="1.000000" stroke="none" 
	d="
M216.880402,115.874268 
	C216.657883,115.934769 216.360016,115.826424 216.062134,115.718079 
	C216.309769,115.713860 216.557419,115.709641 216.880402,115.874268 
z"/>
<path fill="#4B4B46" opacity="1.000000" stroke="none" 
	d="
M217.007568,115.997192 
	C217.200195,116.241852 217.374786,116.500778 217.549377,116.759705 
	C217.358032,116.635078 217.166672,116.510452 216.965546,116.214462 
	C216.955765,116.043106 216.989532,116.011459 217.007568,115.997192 
z"/>
<path fill="#4B4B46" opacity="1.000000" stroke="none" 
	d="
M43.972626,118.972679 
	C44.062637,118.662514 44.169472,118.368088 44.276306,118.073669 
	C44.282631,118.314331 44.288952,118.555000 44.160393,118.906143 
	C44.025513,119.016617 43.989445,118.988426 43.972626,118.972679 
z"/>
<path fill="#4B4B46" opacity="1.000000" stroke="none" 
	d="
M203.785141,10.821369 
	C203.188004,10.956037 202.420258,10.868958 201.652496,10.781879 
	C201.715454,10.581752 201.809860,10.203008 201.836777,10.207745 
	C202.433853,10.312818 203.023483,10.460249 203.785141,10.821369 
z"/>
<path fill="#4B4B46" opacity="1.000000" stroke="none" 
	d="
M43.785133,10.821365 
	C43.188023,10.956039 42.420277,10.868965 41.652531,10.781891 
	C41.715488,10.581760 41.809883,10.203015 41.836792,10.207750 
	C42.433853,10.312825 43.023468,10.460246 43.785133,10.821365 
z"/>
<path fill="#4B4B46" opacity="1.000000" stroke="none" 
	d="
M75.785133,10.821366 
	C75.188026,10.956038 74.420288,10.868962 73.652542,10.781887 
	C73.715500,10.581758 73.809891,10.203016 73.836800,10.207751 
	C74.433861,10.312825 75.023468,10.460246 75.785133,10.821366 
z"/>
<path fill="#4B4B46" opacity="1.000000" stroke="none" 
	d="
M107.785133,10.821366 
	C107.188026,10.956038 106.420288,10.868962 105.652542,10.781887 
	C105.715500,10.581758 105.809891,10.203016 105.836800,10.207751 
	C106.433861,10.312824 107.023468,10.460246 107.785133,10.821366 
z"/>
<path fill="#4B4B46" opacity="1.000000" stroke="none" 
	d="
M139.785141,10.821367 
	C139.188004,10.956037 138.420258,10.868958 137.652496,10.781881 
	C137.715469,10.581754 137.809875,10.203015 137.836777,10.207750 
	C138.433853,10.312825 139.023483,10.460246 139.785141,10.821367 
z"/>
<path fill="#4B4B46" opacity="1.000000" stroke="none" 
	d="
M171.785141,10.821367 
	C171.188004,10.956037 170.420258,10.868958 169.652496,10.781880 
	C169.715469,10.581753 169.809860,10.203011 169.836777,10.207748 
	C170.433853,10.312819 171.023483,10.460246 171.785141,10.821367 
z"/>
<path fill="#4B4B46" opacity="1.000000" stroke="none" 
	d="
M166.144409,11.427546 
	C166.184036,11.507009 165.844894,11.535119 165.844894,11.535119 
	C165.844894,11.535119 166.104797,11.348083 166.144409,11.427546 
z"/>
<path fill="#4B4B46" opacity="1.000000" stroke="none" 
	d="
M204.007568,10.997204 
	C204.200195,11.241861 204.374786,11.500774 204.549377,11.759686 
	C204.358032,11.635057 204.166687,11.510432 203.965546,11.214460 
	C203.955765,11.043115 203.989532,11.011461 204.007568,10.997204 
z"/>
<path fill="#4B4B46" opacity="1.000000" stroke="none" 
	d="
M140.007568,10.997206 
	C140.200195,11.241863 140.374786,11.500776 140.549377,11.759688 
	C140.358032,11.635061 140.166672,11.510436 139.965546,11.214462 
	C139.955765,11.043115 139.989532,11.011461 140.007568,10.997206 
z"/>
<path fill="#4B4B46" opacity="1.000000" stroke="none" 
	d="
M134.144409,11.427546 
	C134.184036,11.507009 133.844894,11.535119 133.844894,11.535119 
	C133.844894,11.535119 134.104797,11.348083 134.144409,11.427546 
z"/>
<path fill="#4B4B46" opacity="1.000000" stroke="none" 
	d="
M108.007538,10.997207 
	C108.200165,11.241854 108.374763,11.500759 108.549362,11.759665 
	C108.358025,11.635044 108.166687,11.510424 107.965561,11.214458 
	C107.955772,11.043114 107.989510,11.011464 108.007538,10.997207 
z"/>
<path fill="#4B4B46" opacity="1.000000" stroke="none" 
	d="
M101.997078,11.332707 
	C102.085831,11.332133 101.992302,11.619476 101.992302,11.619476 
	C101.992302,11.619476 101.908325,11.333282 101.997078,11.332707 
z"/>
<path fill="#4B4B46" opacity="1.000000" stroke="none" 
	d="
M76.007538,10.997207 
	C76.200165,11.241854 76.374763,11.500759 76.549362,11.759663 
	C76.358025,11.635042 76.166687,11.510422 75.965561,11.214458 
	C75.955772,11.043114 75.989510,11.011464 76.007538,10.997207 
z"/>
<path fill="#4B4B46" opacity="1.000000" stroke="none" 
	d="
M69.872986,11.527306 
	C69.834396,11.447356 70.174080,11.422256 70.174080,11.422256 
	C70.174080,11.422256 69.911568,11.607256 69.872986,11.527306 
z"/>
<path fill="#4B4B46" opacity="1.000000" stroke="none" 
	d="
M197.872986,11.527298 
	C197.834427,11.447337 198.174103,11.422269 198.174103,11.422269 
	C198.174103,11.422269 197.911560,11.607259 197.872986,11.527298 
z"/>
<path fill="#4B4B46" opacity="1.000000" stroke="none" 
	d="
M44.007538,10.997208 
	C44.200161,11.241853 44.374760,11.500758 44.549358,11.759663 
	C44.358017,11.635043 44.166679,11.510423 43.965553,11.214458 
	C43.955769,11.043113 43.989513,11.011469 44.007538,10.997208 
z"/>
<path fill="#4B4B46" opacity="1.000000" stroke="none" 
	d="
M38.144455,11.427542 
	C38.184078,11.507003 37.844910,11.535118 37.844910,11.535118 
	C37.844910,11.535118 38.104828,11.348081 38.144455,11.427542 
z"/>
<path fill="#4B4B46" opacity="1.000000" stroke="none" 
	d="
M172.007568,10.997202 
	C172.200211,11.241856 172.374802,11.500770 172.549377,11.759684 
	C172.358032,11.635059 172.166687,11.510434 171.965546,11.214462 
	C171.955765,11.043115 171.989532,11.011461 172.007568,10.997202 
z"/>
<path fill="#4B4B46" opacity="1.000000" stroke="none" 
	d="
M239.749451,20.141846 
	C240.006592,21.029947 239.992004,22.093765 239.970032,23.555668 
	C237.268906,23.079403 238.096054,21.735460 239.749451,20.141846 
z"/>
<path fill="#4B4B46" opacity="1.000000" stroke="none" 
	d="
M10.821365,86.214867 
	C10.956038,86.811974 10.868962,87.579712 10.781887,88.347458 
	C10.581758,88.284500 10.203014,88.190109 10.207749,88.163208 
	C10.312824,87.566139 10.460245,86.976532 10.821365,86.214867 
z"/>
<path fill="#4B4B46" opacity="1.000000" stroke="none" 
	d="
M10.821366,54.214867 
	C10.956039,54.811977 10.868965,55.579723 10.781891,56.347473 
	C10.581759,56.284512 10.203013,56.190117 10.207748,56.163212 
	C10.312826,55.566147 10.460246,54.976532 10.821366,54.214867 
z"/>
<path fill="#4B4B46" opacity="1.000000" stroke="none" 
	d="
M11.624825,59.984673 
	C11.624125,60.073227 11.337928,59.978226 11.337928,59.978226 
	C11.337928,59.978226 11.625525,59.896118 11.624825,59.984673 
z"/>
<path fill="#4B4B46" opacity="1.000000" stroke="none" 
	d="
M10.997208,53.992462 
	C11.241864,53.799839 11.500780,53.625237 11.759697,53.450638 
	C11.635070,53.641979 11.510442,53.833321 11.214463,54.034447 
	C11.043113,54.044231 11.011469,54.010487 10.997208,53.992462 
z"/>
<path fill="#4B4B46" opacity="1.000000" stroke="none" 
	d="
M14.007534,40.997204 
	C14.200157,41.241856 14.374759,41.500767 14.549361,41.759682 
	C14.358024,41.635059 14.166685,41.510437 13.965564,41.214470 
	C13.955781,41.043121 13.989512,41.011467 14.007534,40.997204 
z"/>
<path fill="#4B4B46" opacity="1.000000" stroke="none" 
	d="
M11.427547,91.855545 
	C11.507009,91.815926 11.535118,92.155113 11.535118,92.155113 
	C11.535118,92.155113 11.348086,91.895172 11.427547,91.855545 
z"/>
<path fill="#4B4B46" opacity="1.000000" stroke="none" 
	d="
M10.997208,85.992462 
	C11.241868,85.799843 11.500783,85.625244 11.759697,85.450645 
	C11.635069,85.641983 11.510442,85.833313 11.214464,86.034439 
	C11.043114,86.044228 11.011464,86.010490 10.997208,85.992462 
z"/>
<path fill="#4B4B46" opacity="1.000000" stroke="none" 
	d="
M246.974350,86.295082 
	C247.290665,86.670967 247.578232,87.362991 247.811798,88.072777 
	C247.829437,88.126434 247.463181,88.306412 247.275391,88.427650 
	C247.160950,87.823654 247.046524,87.219658 246.974350,86.295082 
z"/>
<path fill="#4B4B46" opacity="1.000000" stroke="none" 
	d="
M246.974350,54.295090 
	C247.290649,54.670959 247.578201,55.362984 247.811783,56.072773 
	C247.829437,56.126415 247.463196,56.306400 247.275406,56.427654 
	C247.160965,55.823666 247.046524,55.219677 246.974350,54.295090 
z"/>
<path fill="#4B4B46" opacity="1.000000" stroke="none" 
	d="
M246.374847,60.003658 
	C246.376938,59.915218 246.660995,60.008392 246.660995,60.008392 
	C246.660995,60.008392 246.372757,60.092098 246.374847,60.003658 
z"/>
<path fill="#4B4B46" opacity="1.000000" stroke="none" 
	d="
M246.972687,54.027367 
	C246.662491,53.937340 246.368088,53.830509 246.073669,53.723682 
	C246.314331,53.717365 246.554993,53.711044 246.906128,53.839607 
	C247.016602,53.974491 246.988449,54.010571 246.972687,54.027367 
z"/>
<path fill="#4B4B46" opacity="1.000000" stroke="none" 
	d="
M244.027344,41.027313 
	C243.937347,41.337479 243.830536,41.631893 243.723709,41.926308 
	C243.717361,41.685650 243.711029,41.444992 243.839569,41.093857 
	C243.974442,40.983376 244.010513,41.011562 244.027344,41.027313 
z"/>
<path fill="#4B4B46" opacity="1.000000" stroke="none" 
	d="
M241.340698,33.988655 
	C241.108841,33.859077 241.047806,33.679596 241.078308,33.230888 
	C241.589294,33.180519 242.466064,33.239460 241.340698,33.988655 
z"/>
<path fill="#4B4B46" opacity="1.000000" stroke="none" 
	d="
M246.604248,91.868668 
	C246.671066,91.927460 246.433899,92.135887 246.433899,92.135887 
	C246.433899,92.135887 246.537430,91.809883 246.604248,91.868668 
z"/>
<path fill="#4B4B46" opacity="1.000000" stroke="none" 
	d="
M246.972687,86.027359 
	C246.662491,85.937332 246.368088,85.830498 246.073669,85.723671 
	C246.314346,85.717354 246.555008,85.711037 246.906158,85.839607 
	C247.016617,85.974495 246.988449,86.010567 246.972687,86.027359 
z"/>
</svg>